{
    "asset": {
        "version": "2.0",
        "generator": "Open Asset Import Library (assimp v5.4.0)"
    },
    "extensionsUsed": [
        "KHR_materials_volume",
        "FB_ngon_encoding"
    ],
    "accessors": [
        {
            "bufferView": 0,
            "byteOffset": 0,
            "componentType": 5126,
            "count": 105,
            "type": "VEC3",
            "max": [
                98.6943359375,
                98.69438171386719,
                7.006617069244385
            ],
            "min": [
                -98.6943588256836,
                -98.69434356689453,
                -5.668475151062012
            ]
        },
        {
            "bufferView": 1,
            "byteOffset": 0,
            "componentType": 5126,
            "count": 105,
            "type": "VEC3",
            "max": [
                0.959047257900238,
                0.959047257900238,
                0.9964280724525452
            ],
            "min": [
                -0.959047257900238,
                -0.9590475559234619,
                -0.8468798995018005
            ]
        },
        {
            "bufferView": 2,
            "byteOffset": 0,
            "componentType": 5126,
            "count": 105,
            "type": "VEC2",
            "max": [
                1.0,
                0.8500000238418579
            ],
            "min": [
                0.0,
                0.050000011920928955
            ]
        },
        {
            "bufferView": 3,
            "byteOffset": 0,
            "componentType": 5125,
            "count": 600,
            "type": "SCALAR",
            "max": [
                104
            ],
            "min": [
                0
            ]
        }
    ],
    "buffers": [
        {
            "byteLength": 5760,
            "uri": "Halo_0.bin"
        }
    ],
    "bufferViews": [
        {
            "buffer": 0,
            "byteOffset": 0,
            "byteLength": 1260,
            "target": 34962
        },
        {
            "buffer": 0,
            "byteOffset": 1260,
            "byteLength": 1260,
            "target": 34962
        },
        {
            "buffer": 0,
            "byteOffset": 2520,
            "byteLength": 840,
            "target": 34962
        },
        {
            "buffer": 0,
            "byteOffset": 3360,
            "byteLength": 2400,
            "target": 34963
        }
    ],
    "materials": [
        {
            "name": "blinn2SG",
            "pbrMetallicRoughness": {
                "baseColorFactor": [
                    1.0,
                    0.8299999833106995,
                    0.03999999910593033,
                    1.0
                ],
                "metallicFactor": 0.0
            }
        }
    ],
    "meshes": [
        {
            "name": "meshes[0]",
            "primitives": [
                {
                    "mode": 4,
                    "material": 0,
                    "indices": 3,
                    "attributes": {
                        "POSITION": 0,
                        "NORMAL": 1,
                        "TEXCOORD_0": 2
                    }
                }
            ]
        }
    ],
    "nodes": [
        {
            "name": "Halo",
            "children": [
                1
            ]
        },
        {
            "name": "pTorus1",
            "mesh": 0,
            "extras": {
                "name": "pTorus1"
            }
        }
    ],
    "scenes": [
        {
            "nodes": [
                0
            ]
        }
    ],
    "scene": 0
}