{
    "asset": {
        "version": "2.0",
        "generator": "Open Asset Import Library (assimp v5.4.0)"
    },
    "extensionsUsed": [
        "KHR_materials_volume",
        "FB_ngon_encoding"
    ],
    "accessors": [
        {
            "bufferView": 0,
            "byteOffset": 0,
            "componentType": 5126,
            "count": 960,
            "type": "VEC3",
            "max": [
                0.014730545692145824,
                0.009216138161718845,
                0.008039018139243126
            ],
            "min": [
                -0.014988596551120281,
                -0.009279211983084679,
                -0.008280373178422451
            ]
        },
        {
            "bufferView": 1,
            "byteOffset": 0,
            "componentType": 5126,
            "count": 960,
            "type": "VEC3",
            "max": [
                0.9849250316619873,
                0.9986115097999573,
                0.9928409457206726
            ],
            "min": [
                -0.9759528636932373,
                -0.9969001412391663,
                -0.9981259703636169
            ]
        },
        {
            "bufferView": 2,
            "byteOffset": 0,
            "componentType": 5125,
            "count": 1440,
            "type": "SCALAR",
            "max": [
                959
            ],
            "min": [
                0
            ]
        }
    ],
    "buffers": [
        {
            "byteLength": 28800,
            "uri": "Cloud2_0.bin"
        }
    ],
    "bufferViews": [
        {
            "buffer": 0,
            "byteOffset": 0,
            "byteLength": 11520,
            "target": 34962
        },
        {
            "buffer": 0,
            "byteOffset": 11520,
            "byteLength": 11520,
            "target": 34962
        },
        {
            "buffer": 0,
            "byteOffset": 23040,
            "byteLength": 5760,
            "target": 34963
        }
    ],
    "materials": [
        {
            "name": "White",
            "pbrMetallicRoughness": {
                "baseColorFactor": [
                    0.64000004529953,
                    0.64000004529953,
                    0.64000004529953,
                    1.0
                ],
                "metallicFactor": 0.4000000059604645,
                "roughnessFactor": 0.41508710384368896
            }
        }
    ],
    "meshes": [
        {
            "name": "meshes[0]",
            "primitives": [
                {
                    "mode": 4,
                    "material": 0,
                    "indices": 2,
                    "attributes": {
                        "POSITION": 0,
                        "NORMAL": 1
                    }
                }
            ]
        }
    ],
    "nodes": [
        {
            "name": "Cloud",
            "children": [
                1
            ]
        },
        {
            "name": "RootNode",
            "children": [
                2
            ],
            "extras": {
                "name": "RootNode"
            }
        },
        {
            "name": "Cloud1",
            "matrix": [
                100.0,
                0.0,
                0.0,
                0.0,
                0.0,
                -0.000013435885193757713,
                -100.0,
                0.0,
                0.0,
                100.0,
                -0.000013435885193757713,
                0.0,
                0.0,
                0.0,
                0.0,
                1.0
            ],
            "mesh": 0,
            "extras": {
                "name": "Cloud1"
            }
        }
    ],
    "scenes": [
        {
            "nodes": [
                0
            ]
        }
    ],
    "scene": 0
}