{
    "asset": {
        "version": "2.0",
        "generator": "Open Asset Import Library (assimp v5.4.0)"
    },
    "extensionsUsed": [
        "KHR_materials_volume",
        "FB_ngon_encoding"
    ],
    "accessors": [
        {
            "bufferView": 0,
            "byteOffset": 0,
            "componentType": 5126,
            "count": 24270,
            "type": "VEC3",
            "max": [
                0.5060480237007141,
                0.1393679976463318,
                0.43328800797462463
            ],
            "min": [
                -0.5019770264625549,
                -0.2306320071220398,
                -0.5053439736366272
            ]
        },
        {
            "bufferView": 1,
            "byteOffset": 0,
            "componentType": 5126,
            "count": 24270,
            "type": "VEC3",
            "max": [
                0.984815776348114,
                1.0,
                0.984815776348114
            ],
            "min": [
                -0.984815776348114,
                -0.984815776348114,
                -1.0
            ]
        },
        {
            "bufferView": 2,
            "byteOffset": 0,
            "componentType": 5125,
            "count": 36288,
            "type": "SCALAR",
            "max": [
                24269
            ],
            "min": [
                0
            ]
        },
        {
            "bufferView": 3,
            "byteOffset": 0,
            "componentType": 5126,
            "count": 347,
            "type": "VEC3",
            "max": [
                0.3415229916572571,
                0.04436799883842468,
                0.28465598821640015
            ],
            "min": [
                -0.25197699666023254,
                -1.4602099657058716,
                -0.3812829852104187
            ]
        },
        {
            "bufferView": 4,
            "byteOffset": 0,
            "componentType": 5126,
            "count": 347,
            "type": "VEC3",
            "max": [
                1.0,
                0.9970563054084778,
                1.0
            ],
            "min": [
                -1.0,
                -1.0,
                -0.9997762441635132
            ]
        },
        {
            "bufferView": 5,
            "byteOffset": 0,
            "componentType": 5125,
            "count": 390,
            "type": "SCALAR",
            "max": [
                346
            ],
            "min": [
                0
            ]
        },
        {
            "bufferView": 6,
            "byteOffset": 0,
            "componentType": 5126,
            "count": 860,
            "type": "VEC3",
            "max": [
                0.4880230128765106,
                0.3503679931163788,
                0.40967801213264465
            ],
            "min": [
                -0.471017986536026,
                -0.795632004737854,
                -0.44285500049591064
            ]
        },
        {
            "bufferView": 7,
            "byteOffset": 0,
            "componentType": 5126,
            "count": 860,
            "type": "VEC3",
            "max": [
                1.0,
                1.0,
                1.0
            ],
            "min": [
                -1.0,
                -1.0,
                -1.0
            ]
        },
        {
            "bufferView": 8,
            "byteOffset": 0,
            "componentType": 5125,
            "count": 1464,
            "type": "SCALAR",
            "max": [
                859
            ],
            "min": [
                0
            ]
        },
        {
            "bufferView": 9,
            "byteOffset": 0,
            "componentType": 5126,
            "count": 246,
            "type": "VEC3",
            "max": [
                0.19692100584506989,
                0.09119600057601929,
                0.22369900345802307
            ],
            "min": [
                -0.24663500487804413,
                -0.022664999589323997,
                -0.2489510029554367
            ]
        },
        {
            "bufferView": 10,
            "byteOffset": 0,
            "componentType": 5126,
            "count": 246,
            "type": "VEC3",
            "max": [
                0.9363837838172913,
                0.9525724053382874,
                0.9753208160400391
            ],
            "min": [
                -0.9163673520088196,
                -0.9998571872711182,
                -0.9052693843841553
            ]
        },
        {
            "bufferView": 11,
            "byteOffset": 0,
            "componentType": 5125,
            "count": 264,
            "type": "SCALAR",
            "max": [
                245
            ],
            "min": [
                0
            ]
        },
        {
            "bufferView": 12,
            "byteOffset": 0,
            "componentType": 5126,
            "count": 28,
            "type": "VEC3",
            "max": [
                0.30302301049232483,
                0.15936799347400665,
                0.24465599656105042
            ],
            "min": [
                0.22302299737930298,
                0.09936799854040146,
                0.1746560037136078
            ]
        },
        {
            "bufferView": 13,
            "byteOffset": 0,
            "componentType": 5126,
            "count": 28,
            "type": "VEC3",
            "max": [
                0.8320348858833313,
                0.5547232627868652,
                1.0
            ],
            "min": [
                -0.8320657014846802,
                -1.0,
                -1.0
            ]
        },
        {
            "bufferView": 14,
            "byteOffset": 0,
            "componentType": 5125,
            "count": 45,
            "type": "SCALAR",
            "max": [
                27
            ],
            "min": [
                0
            ]
        },
        {
            "bufferView": 15,
            "byteOffset": 0,
            "componentType": 5126,
            "count": 67,
            "type": "VEC3",
            "max": [
                0.32603201270103455,
                0.1602420061826706,
                0.2450850009918213
            ],
            "min": [
                0.19610099494457245,
                0.09139499813318253,
                0.16891400516033173
            ]
        },
        {
            "bufferView": 16,
            "byteOffset": 0,
            "componentType": 5126,
            "count": 67,
            "type": "VEC3",
            "max": [
                1.0,
                0.7322054505348206,
                0.8213075995445251
            ],
            "min": [
                -0.8017908930778503,
                -0.8054004311561584,
                -0.9933264255523682
            ]
        },
        {
            "bufferView": 17,
            "byteOffset": 0,
            "componentType": 5125,
            "count": 69,
            "type": "SCALAR",
            "max": [
                66
            ],
            "min": [
                0
            ]
        },
        {
            "bufferView": 18,
            "byteOffset": 0,
            "componentType": 5126,
            "count": 130,
            "type": "VEC3",
            "max": [
                0.2705950140953064,
                0.13816699385643005,
                0.12701299786567688
            ],
            "min": [
                0.2362159937620163,
                0.09333399683237076,
                0.10114800184965134
            ]
        },
        {
            "bufferView": 19,
            "byteOffset": 0,
            "componentType": 5126,
            "count": 130,
            "type": "VEC3",
            "max": [
                0.9722775816917419,
                0.8054247498512268,
                0.9585963487625122
            ],
            "min": [
                -0.9257320761680603,
                -0.8439164757728577,
                -0.8885618448257446
            ]
        },
        {
            "bufferView": 20,
            "byteOffset": 0,
            "componentType": 5125,
            "count": 132,
            "type": "SCALAR",
            "max": [
                129
            ],
            "min": [
                0
            ]
        },
        {
            "bufferView": 21,
            "byteOffset": 0,
            "componentType": 5126,
            "count": 1278,
            "type": "VEC3",
            "max": [
                0.4180229902267456,
                0.3953680098056793,
                0.29465600848197937
            ],
            "min": [
                -0.38197699189186096,
                0.017176000401377678,
                -0.39534398913383484
            ]
        },
        {
            "bufferView": 22,
            "byteOffset": 0,
            "componentType": 5126,
            "count": 1278,
            "type": "VEC3",
            "max": [
                0.9589486122131348,
                0.9732123613357544,
                0.8911927342414856
            ],
            "min": [
                -0.9270286560058594,
                -1.0,
                -0.9185864329338074
            ]
        },
        {
            "bufferView": 23,
            "byteOffset": 0,
            "componentType": 5125,
            "count": 1656,
            "type": "SCALAR",
            "max": [
                1277
            ],
            "min": [
                0
            ]
        }
    ],
    "buffers": [
        {
            "byteLength": 814656,
            "uri": "Secret Camping spot_0.bin"
        }
    ],
    "bufferViews": [
        {
            "buffer": 0,
            "byteOffset": 0,
            "byteLength": 291240,
            "target": 34962
        },
        {
            "buffer": 0,
            "byteOffset": 291240,
            "byteLength": 291240,
            "target": 34962
        },
        {
            "buffer": 0,
            "byteOffset": 582480,
            "byteLength": 145152,
            "target": 34963
        },
        {
            "buffer": 0,
            "byteOffset": 727632,
            "byteLength": 4164,
            "target": 34962
        },
        {
            "buffer": 0,
            "byteOffset": 731796,
            "byteLength": 4164,
            "target": 34962
        },
        {
            "buffer": 0,
            "byteOffset": 735960,
            "byteLength": 1560,
            "target": 34963
        },
        {
            "buffer": 0,
            "byteOffset": 737520,
            "byteLength": 10320,
            "target": 34962
        },
        {
            "buffer": 0,
            "byteOffset": 747840,
            "byteLength": 10320,
            "target": 34962
        },
        {
            "buffer": 0,
            "byteOffset": 758160,
            "byteLength": 5856,
            "target": 34963
        },
        {
            "buffer": 0,
            "byteOffset": 764016,
            "byteLength": 2952,
            "target": 34962
        },
        {
            "buffer": 0,
            "byteOffset": 766968,
            "byteLength": 2952,
            "target": 34962
        },
        {
            "buffer": 0,
            "byteOffset": 769920,
            "byteLength": 1056,
            "target": 34963
        },
        {
            "buffer": 0,
            "byteOffset": 770976,
            "byteLength": 336,
            "target": 34962
        },
        {
            "buffer": 0,
            "byteOffset": 771312,
            "byteLength": 336,
            "target": 34962
        },
        {
            "buffer": 0,
            "byteOffset": 771648,
            "byteLength": 180,
            "target": 34963
        },
        {
            "buffer": 0,
            "byteOffset": 771828,
            "byteLength": 804,
            "target": 34962
        },
        {
            "buffer": 0,
            "byteOffset": 772632,
            "byteLength": 804,
            "target": 34962
        },
        {
            "buffer": 0,
            "byteOffset": 773436,
            "byteLength": 276,
            "target": 34963
        },
        {
            "buffer": 0,
            "byteOffset": 773712,
            "byteLength": 1560,
            "target": 34962
        },
        {
            "buffer": 0,
            "byteOffset": 775272,
            "byteLength": 1560,
            "target": 34962
        },
        {
            "buffer": 0,
            "byteOffset": 776832,
            "byteLength": 528,
            "target": 34963
        },
        {
            "buffer": 0,
            "byteOffset": 777360,
            "byteLength": 15336,
            "target": 34962
        },
        {
            "buffer": 0,
            "byteOffset": 792696,
            "byteLength": 15336,
            "target": 34962
        },
        {
            "buffer": 0,
            "byteOffset": 808032,
            "byteLength": 6624,
            "target": 34963
        }
    ],
    "materials": [
        {
            "name": "mat10",
            "pbrMetallicRoughness": {
                "baseColorFactor": [
                    0.07000000029802322,
                    0.4399999976158142,
                    0.07999999821186066,
                    1.0
                ],
                "metallicFactor": 0.0
            }
        },
        {
            "name": "mat4",
            "pbrMetallicRoughness": {
                "baseColorFactor": [
                    0.0,
                    0.5199999809265137,
                    0.6600000262260437,
                    1.0
                ],
                "metallicFactor": 0.0
            }
        },
        {
            "name": "mat20",
            "pbrMetallicRoughness": {
                "baseColorFactor": [
                    0.1899999976158142,
                    0.09000000357627869,
                    0.05999999865889549,
                    1.0
                ],
                "metallicFactor": 0.0
            }
        },
        {
            "name": "mat22",
            "pbrMetallicRoughness": {
                "baseColorFactor": [
                    0.3499999940395355,
                    0.3499999940395355,
                    0.3499999940395355,
                    1.0
                ],
                "metallicFactor": 0.0
            }
        },
        {
            "name": "mat14",
            "pbrMetallicRoughness": {
                "baseColorFactor": [
                    1.0,
                    0.09000000357627869,
                    0.009999999776482582,
                    1.0
                ],
                "metallicFactor": 0.0
            }
        },
        {
            "name": "mat17",
            "pbrMetallicRoughness": {
                "baseColorFactor": [
                    0.05999999865889549,
                    0.10000000149011612,
                    0.12999999523162842,
                    1.0
                ],
                "metallicFactor": 0.0
            }
        },
        {
            "name": "mat13",
            "pbrMetallicRoughness": {
                "baseColorFactor": [
                    1.0,
                    0.33000001311302185,
                    0.0,
                    1.0
                ],
                "metallicFactor": 0.0
            }
        },
        {
            "name": "mat9",
            "pbrMetallicRoughness": {
                "baseColorFactor": [
                    0.27000001072883606,
                    0.550000011920929,
                    0.07000000029802322,
                    1.0
                ],
                "metallicFactor": 0.0
            }
        }
    ],
    "meshes": [
        {
            "name": "meshes[0]",
            "primitives": [
                {
                    "mode": 4,
                    "material": 0,
                    "indices": 2,
                    "attributes": {
                        "POSITION": 0,
                        "NORMAL": 1
                    }
                }
            ]
        },
        {
            "name": "meshes[1]",
            "primitives": [
                {
                    "mode": 4,
                    "material": 1,
                    "indices": 5,
                    "attributes": {
                        "POSITION": 3,
                        "NORMAL": 4
                    }
                }
            ]
        },
        {
            "name": "meshes[2]",
            "primitives": [
                {
                    "mode": 4,
                    "material": 2,
                    "indices": 8,
                    "attributes": {
                        "POSITION": 6,
                        "NORMAL": 7
                    }
                }
            ]
        },
        {
            "name": "meshes[3]",
            "primitives": [
                {
                    "mode": 4,
                    "material": 3,
                    "indices": 11,
                    "attributes": {
                        "POSITION": 9,
                        "NORMAL": 10
                    }
                }
            ]
        },
        {
            "name": "meshes[4]",
            "primitives": [
                {
                    "mode": 4,
                    "material": 4,
                    "indices": 14,
                    "attributes": {
                        "POSITION": 12,
                        "NORMAL": 13
                    }
                }
            ]
        },
        {
            "name": "meshes[5]",
            "primitives": [
                {
                    "mode": 4,
                    "material": 5,
                    "indices": 17,
                    "attributes": {
                        "POSITION": 15,
                        "NORMAL": 16
                    }
                }
            ]
        },
        {
            "name": "meshes[6]",
            "primitives": [
                {
                    "mode": 4,
                    "material": 6,
                    "indices": 20,
                    "attributes": {
                        "POSITION": 18,
                        "NORMAL": 19
                    }
                }
            ]
        },
        {
            "name": "meshes[7]",
            "primitives": [
                {
                    "mode": 4,
                    "material": 7,
                    "indices": 23,
                    "attributes": {
                        "POSITION": 21,
                        "NORMAL": 22
                    }
                }
            ]
        }
    ],
    "nodes": [
        {
            "name": "Secret Camping spot",
            "children": [
                1
            ]
        },
        {
            "name": "model064",
            "children": [
                2,
                3,
                4,
                5,
                6,
                7,
                8,
                9
            ],
            "extras": {
                "name": "model.064"
            }
        },
        {
            "name": "model064-Mesh",
            "mesh": 0
        },
        {
            "name": "model064-Mesh_1",
            "mesh": 1
        },
        {
            "name": "model064-Mesh_2",
            "mesh": 2
        },
        {
            "name": "model064-Mesh_3",
            "mesh": 3
        },
        {
            "name": "model064-Mesh_4",
            "mesh": 4
        },
        {
            "name": "model064-Mesh_5",
            "mesh": 5
        },
        {
            "name": "model064-Mesh_6",
            "mesh": 6
        },
        {
            "name": "model064-Mesh_7",
            "mesh": 7
        }
    ],
    "scenes": [
        {
            "nodes": [
                0
            ]
        }
    ],
    "scene": 0
}