{
    "asset": {
        "version": "2.0",
        "generator": "Open Asset Import Library (assimp v5.4.0)"
    },
    "extensionsUsed": [
        "KHR_materials_volume",
        "FB_ngon_encoding"
    ],
    "accessors": [
        {
            "bufferView": 0,
            "byteOffset": 0,
            "componentType": 5126,
            "count": 894,
            "type": "VEC3",
            "max": [
                0.9673870205879211,
                1.878980040550232,
                0.40252000093460083
            ],
            "min": [
                -0.9673870205879211,
                -0.011365000158548355,
                -0.2983579933643341
            ]
        },
        {
            "bufferView": 1,
            "byteOffset": 0,
            "componentType": 5126,
            "count": 894,
            "type": "VEC3",
            "max": [
                0.9961761236190796,
                0.9868234395980835,
                0.9999616146087646
            ],
            "min": [
                -0.9961761236190796,
                -0.9998193383216858,
                -0.9944282174110413
            ]
        },
        {
            "bufferView": 2,
            "byteOffset": 0,
            "componentType": 5126,
            "count": 894,
            "type": "VEC2",
            "max": [
                0.5996099710464478,
                0.4885439872741699
            ],
            "min": [
                0.3765279948711395,
                0.125
            ]
        },
        {
            "bufferView": 3,
            "byteOffset": 0,
            "componentType": 5125,
            "count": 5400,
            "type": "SCALAR",
            "max": [
                893
            ],
            "min": [
                0
            ]
        },
        {
            "bufferView": 4,
            "byteOffset": 0,
            "componentType": 5126,
            "count": 1654,
            "type": "VEC3",
            "max": [
                0.7217980027198792,
                2.0218780040740967,
                0.40252000093460083
            ],
            "min": [
                -0.7217980027198792,
                0.08318199962377548,
                -0.8526579737663269
            ]
        },
        {
            "bufferView": 5,
            "byteOffset": 0,
            "componentType": 5126,
            "count": 1654,
            "type": "VEC3",
            "max": [
                0.9998976588249207,
                0.9997630715370178,
                0.9916326999664307
            ],
            "min": [
                -0.9998976588249207,
                -0.9999755024909973,
                -0.9749671220779419
            ]
        },
        {
            "bufferView": 6,
            "byteOffset": 0,
            "componentType": 5126,
            "count": 1654,
            "type": "VEC2",
            "max": [
                0.75,
                0.6305029988288879
            ],
            "min": [
                0.25,
                0.11761802434921265
            ]
        },
        {
            "bufferView": 7,
            "byteOffset": 0,
            "componentType": 5125,
            "count": 9984,
            "type": "SCALAR",
            "max": [
                1653
            ],
            "min": [
                0
            ]
        }
    ],
    "buffers": [
        {
            "byteLength": 143072,
            "uri": "Monkey_0.bin"
        }
    ],
    "bufferViews": [
        {
            "buffer": 0,
            "byteOffset": 0,
            "byteLength": 10728,
            "target": 34962
        },
        {
            "buffer": 0,
            "byteOffset": 10728,
            "byteLength": 10728,
            "target": 34962
        },
        {
            "buffer": 0,
            "byteOffset": 21456,
            "byteLength": 7152,
            "target": 34962
        },
        {
            "buffer": 0,
            "byteOffset": 28608,
            "byteLength": 21600,
            "target": 34963
        },
        {
            "buffer": 0,
            "byteOffset": 50208,
            "byteLength": 19848,
            "target": 34962
        },
        {
            "buffer": 0,
            "byteOffset": 70056,
            "byteLength": 19848,
            "target": 34962
        },
        {
            "buffer": 0,
            "byteOffset": 89904,
            "byteLength": 13232,
            "target": 34962
        },
        {
            "buffer": 0,
            "byteOffset": 103136,
            "byteLength": 39936,
            "target": 34963
        }
    ],
    "materials": [
        {
            "name": "Material.001",
            "pbrMetallicRoughness": {
                "baseColorFactor": [
                    0.6902819871902466,
                    0.523580014705658,
                    0.3650200068950653,
                    1.0
                ],
                "metallicFactor": 0.0,
                "roughnessFactor": 0.75
            }
        },
        {
            "name": "Material.002",
            "pbrMetallicRoughness": {
                "baseColorFactor": [
                    0.12447399646043777,
                    0.052351001650094986,
                    0.031314000487327576,
                    1.0
                ],
                "metallicFactor": 0.0,
                "roughnessFactor": 0.75
            }
        }
    ],
    "meshes": [
        {
            "name": "meshes[0]",
            "primitives": [
                {
                    "mode": 4,
                    "material": 0,
                    "indices": 3,
                    "attributes": {
                        "POSITION": 0,
                        "NORMAL": 1,
                        "TEXCOORD_0": 2
                    }
                }
            ]
        },
        {
            "name": "meshes[1]",
            "primitives": [
                {
                    "mode": 4,
                    "material": 1,
                    "indices": 7,
                    "attributes": {
                        "POSITION": 4,
                        "NORMAL": 5,
                        "TEXCOORD_0": 6
                    }
                }
            ]
        }
    ],
    "nodes": [
        {
            "name": "Monkey",
            "children": [
                1
            ]
        },
        {
            "name": "Cube",
            "children": [
                2,
                3
            ],
            "extras": {
                "name": "Cube"
            }
        },
        {
            "name": "Cube-Mesh",
            "mesh": 0
        },
        {
            "name": "Cube-Mesh_1",
            "mesh": 1
        }
    ],
    "scenes": [
        {
            "nodes": [
                0
            ]
        }
    ],
    "scene": 0
}